<?xml version="1.0" encoding="iso-8859-1"?>
<!-- Generator: Adobe Illustrator 19.0.0, SVG Export Plug-In . SVG Version: 6.00 Build 0)  -->
<svg version="1.1" id="Layer_1" xmlns="http://www.w3.org/2000/svg" xmlns:xlink="http://www.w3.org/1999/xlink" x="0px" y="0px"
	 viewBox="0 0 512 512" style="enable-background:new 0 0 512 512;" xml:space="preserve">
<g>
	<g>
		<polygon points="272.495,309.872 85.606,428.475 78.923,496.605 278.334,369.382 		"/>
	</g>
</g>
<g>
	<g>
		<path d="M283.93,183.652h-23.544l-6.682-83.478h20.207V66.783h-22.88l-0.57-7.118l-0.029-0.329
			C247.051,25.509,218.864,0,184.869,0c-33.996,0-62.182,25.509-65.565,59.336l-0.596,7.446H95.825v33.391h20.21l-6.683,83.478
			H85.808v33.391h20.543l-5.842,59.54l93.676-59.54h62.249L96.37,318.78l-6.625,67.521l179.098-113.658l-5.455-55.599h20.542
			V183.652z M239.408,153.6h-51.2v-33.391h51.2V153.6z"/>
	</g>
</g>
<g>
	<g>
		<polygon points="281.991,406.657 116.875,512 292.326,512 		"/>
	</g>
</g>
<g>
	<g>
		<polygon points="267.703,136.904 433.077,194.539 433.077,79.27 		"/>
	</g>
</g>
<g>
</g>
<g>
</g>
<g>
</g>
<g>
</g>
<g>
</g>
<g>
</g>
<g>
</g>
<g>
</g>
<g>
</g>
<g>
</g>
<g>
</g>
<g>
</g>
<g>
</g>
<g>
</g>
<g>
</g>
</svg>
