<?xml version="1.0" encoding="iso-8859-1"?>
<!-- Generator: Adobe Illustrator 19.0.0, SVG Export Plug-In . SVG Version: 6.00 Build 0)  -->
<svg version="1.1" id="Layer_1" xmlns="http://www.w3.org/2000/svg" xmlns:xlink="http://www.w3.org/1999/xlink" x="0px" y="0px"
	 viewBox="0 0 512 512" style="enable-background:new 0 0 512 512;" xml:space="preserve">
<g>
	<g>
		<g>
			<path d="M221.867,145.067c0-4.71-3.823-8.533-8.533-8.533h-68.267c-4.71,0-8.533,3.823-8.533,8.533
				c0,4.71,3.823,8.533,8.533,8.533h68.267C218.044,153.6,221.867,149.777,221.867,145.067z"/>
			<path d="M213.333,204.8H281.6c4.719,0,8.533-3.823,8.533-8.533s-3.814-8.533-8.533-8.533h-68.267
				c-4.71,0-8.533,3.823-8.533,8.533S208.623,204.8,213.333,204.8z"/>
			<path d="M375.467,196.267c0,4.71,3.814,8.533,8.533,8.533h34.133c4.719,0,8.533-3.823,8.533-8.533s-3.814-8.533-8.533-8.533H384
				C379.281,187.733,375.467,191.556,375.467,196.267z"/>
			<path d="M384,85.333h-68.267c-4.719,0-8.533,3.823-8.533,8.533c0,4.71,3.814,8.533,8.533,8.533H384
				c4.719,0,8.533-3.823,8.533-8.533C392.533,89.156,388.719,85.333,384,85.333z"/>
			<path d="M93.867,256c4.71,0,8.533-3.823,8.533-8.533s-3.823-8.533-8.533-8.533h-51.2c-4.71,0-8.533,3.823-8.533,8.533
				S37.956,256,42.667,256H93.867z"/>
			<path d="M488.482,341.931c-1.51-0.657-3.149-0.862-4.745-0.597h-82.671c-4.719,0-8.533,3.823-8.533,8.533
				s3.814,8.533,8.533,8.533h70.895c-5.709,12.066-12.442,23.407-19.891,34.133H384c-4.719,0-8.533,3.823-8.533,8.533
				s3.814,8.533,8.533,8.533h55.031c-44.57,53.248-110.839,85.333-183.031,85.333C124.254,494.933,17.067,387.746,17.067,256
				c0-8.141,0.41-16.367,1.237-24.448c0.469-4.685-2.953-8.875-7.637-9.344c-4.762-0.469-8.875,2.953-9.353,7.629
				C0.444,238.481,0,247.287,0,256c0,141.158,114.842,256,256,256c103.825,0,196.403-61.739,236.339-157.448
				c0.589-0.896,0.998-1.911,1.237-3.004C494.396,347.58,492.203,343.535,488.482,341.931z"/>
			<path d="M119.467,349.867c0,4.71,3.823,8.533,8.533,8.533h34.133c4.71,0,8.533-3.823,8.533-8.533s-3.823-8.533-8.533-8.533H128
				C123.29,341.333,119.467,345.156,119.467,349.867z"/>
			<path d="M136.533,247.467c0,4.71,3.823,8.533,8.533,8.533H230.4c4.71,0,8.533-3.823,8.533-8.533s-3.823-8.533-8.533-8.533
				h-85.333C140.356,238.933,136.533,242.756,136.533,247.467z"/>
			<path d="M256,349.867c0,4.71,3.823,8.533,8.533,8.533h85.333c4.719,0,8.533-3.823,8.533-8.533s-3.814-8.533-8.533-8.533h-85.333
				C259.823,341.333,256,345.156,256,349.867z"/>
			<path d="M256,0C137.975,0,35.78,79.906,7.475,194.321c-1.109,4.489,1.57,8.986,6.025,10.223c1.067,0.299,2.142,0.367,3.183,0.256
				h145.451c4.71,0,8.533-3.823,8.533-8.533s-3.823-8.533-8.533-8.533H26.948C56.9,86.699,149.547,17.067,256,17.067
				c131.746,0,238.933,107.187,238.933,238.933c0,22.409-3.098,44.587-9.199,65.92c-1.297,4.531,1.314,9.259,5.845,10.547
				c0.785,0.23,1.579,0.333,2.364,0.333c3.703,0,7.125-2.44,8.192-6.187C508.681,303.761,512,280.004,512,256
				C512,114.842,397.158,0,256,0z"/>
			<path d="M315.733,392.533c-4.719,0-8.533,3.823-8.533,8.533s3.814,8.533,8.533,8.533H332.8c4.719,0,8.533-3.823,8.533-8.533
				s-3.814-8.533-8.533-8.533H315.733z"/>
			<path d="M230.4,392.533c-4.71,0-8.533,3.823-8.533,8.533s3.823,8.533,8.533,8.533h34.133c4.719,0,8.533-3.823,8.533-8.533
				s-3.814-8.533-8.533-8.533H230.4z"/>
		</g>
	</g>
</g>
<g>
</g>
<g>
</g>
<g>
</g>
<g>
</g>
<g>
</g>
<g>
</g>
<g>
</g>
<g>
</g>
<g>
</g>
<g>
</g>
<g>
</g>
<g>
</g>
<g>
</g>
<g>
</g>
<g>
</g>
</svg>
